# xmcd
#
# Track frame offsets: 
#        150
#        13494
#        28623
#        42730
#        56182
#        71771
#        82196
#        97721
#        111941
#        127785
#        139582
#        156146
#        172058
#        188452
#        201342
#        215406
#        230848
#        245950
#        259942
#        274616
#
# Disc length: 3860 seconds
#
# Revision: 1
# Processed by: cddbd v1.5.2PL0 Copyright (c) Steve Scherf et al.
# Submitted via: ExactAudioCopy v0.99pb5
#
DISCID=310f1214
DTITLE=Glenn Miller - In the mood [Weton-Wesgram]
DYEAR=2005
DGENRE=Jazz
TTITLE0=Adios
TTITLE1=American patrol
TTITLE2=At last
TTITLE3=Buggle call rag
TTITLE4=Chattanooga choo choo
TTITLE5=Danny boy
TTITLE6=Stardust
TTITLE7=Elmer's tune
TTITLE8=Ferensi
TTITLE9=Fools rush in (where angels fear to tread)
TTITLE10=A nightingale sang in Berkeley Square
TTITLE11=Boulders bluff
TTITLE12=In the mood
TTITLE13=Running wild
TTITLE14=Jukebox saturday night
TTITLE15=Moonlight serenade
TTITLE16=Moonlight cocktail
TTITLE17=Missouri waltz
TTITLE18=My melancholy baby
TTITLE19=Perfidia
EXTD=YEAR: 2005
EXTT0=
EXTT1=
EXTT2=
EXTT3=
EXTT4=
EXTT5=
EXTT6=
EXTT7=
EXTT8=
EXTT9=
EXTT10=
EXTT11=
EXTT12=
EXTT13=
EXTT14=
EXTT15=
EXTT16=
EXTT17=
EXTT18=
EXTT19=
PLAYORDER=
